<svg width="156" height="46" viewBox="0 0 156 46" fill="none" xmlns="http://www.w3.org/2000/svg">
<path d="M18.4 17.3C18.4 18.7667 17.65 19.5 16.15 19.5C15.65 19.5 15.2333 19.3833 14.9 19.15C14.5667 18.9167 14.2 18.5667 13.8 18.1C12.8 17 11.9333 16.45 11.2 16.45C10.2333 16.45 9.28333 16.7333 8.35 17.3C7.45 17.8667 6.71667 18.6667 6.15 19.7C5.58333 20.7333 5.3 21.8833 5.3 23.15C5.3 24.55 5.56667 25.7167 6.1 26.65C6.66667 27.5833 7.53333 28.3833 8.7 29.05C9.13333 29.2833 9.63333 29.4667 10.2 29.6C10.8 29.7333 11.3167 29.8 11.75 29.8C12.7167 29.8 13.9333 29.4167 15.4 28.65C15.9333 28.3833 16.3833 28.1833 16.75 28.05C17.1167 27.9167 17.5 27.85 17.9 27.85C18.2667 27.85 18.6833 28.0167 19.15 28.35C19.6167 28.6833 19.85 29.1 19.85 29.6C19.85 30.6 19.3833 31.45 18.45 32.15C17.5167 32.8167 16.3667 33.3333 15 33.7C13.6667 34.0333 12.3833 34.2 11.15 34.2C9.18333 34.2 7.35 33.75 5.65 32.85C3.98333 31.95 2.65 30.7167 1.65 29.15C0.65 27.55 0.15 25.75 0.15 23.75C0.15 21.6167 0.633333 19.6667 1.6 17.9C2.56667 16.1333 3.86667 14.75 5.5 13.75C7.13333 12.75 8.91667 12.25 10.85 12.25C11.95 12.25 13.0833 12.45 14.25 12.85C15.4167 13.25 16.4 13.8333 17.2 14.6C18 15.3667 18.4 16.2667 18.4 17.3ZM46.8375 31.6C46.8375 32.3333 46.4375 32.95 45.6375 33.45C44.8708 33.95 44.1542 34.2 43.4875 34.2C42.2208 34.2 41.2042 34.05 40.4375 33.75C39.7042 33.4167 39.0208 32.8167 38.3875 31.95C37.5208 32.7167 36.3375 33.3 34.8375 33.7C33.3375 34.0667 31.9542 34.25 30.6875 34.25C28.6208 34.25 26.9208 33.7 25.5875 32.6C24.2542 31.4667 23.5875 29.8167 23.5875 27.65C23.5875 26.7167 23.8375 25.8667 24.3375 25.1C24.8375 24.3 25.5208 23.6 26.3875 23C27.3542 22.3667 28.4542 21.8833 29.6875 21.55C30.9208 21.1833 32.2042 21 33.5375 21C34.2375 21 35.0708 21.1333 36.0375 21.4C37.0042 21.6667 37.7542 21.95 38.2875 22.25V21.45C38.2875 19.65 37.8542 18.4167 36.9875 17.75C36.1208 17.05 34.7208 16.7 32.7875 16.7C32.2208 16.7 31.6542 16.8167 31.0875 17.05C30.5542 17.2833 29.9375 17.6 29.2375 18C28.3042 18.5 27.4208 18.75 26.5875 18.75C26.2875 18.75 26.0042 18.55 25.7375 18.15C25.4708 17.7167 25.3375 17.3333 25.3375 17C25.3375 16.0333 25.7875 15.2 26.6875 14.5C27.6208 13.8 28.7208 13.2833 29.9875 12.95C31.2542 12.5833 32.3875 12.4 33.3875 12.4C34.3875 12.4 35.5375 12.6 36.8375 13C38.1375 13.3667 39.2042 13.8833 40.0375 14.55C41.0375 15.4167 41.8042 16.4333 42.3375 17.6C42.9042 18.7333 43.1875 19.9833 43.1875 21.35C43.1875 21.7833 43.1542 22.4333 43.0875 23.3C43.0208 24.2333 42.9875 25.0333 42.9875 25.7C42.9875 26 42.9542 26.45 42.8875 27.05C42.8208 27.7833 42.7875 28.3667 42.7875 28.8C42.7875 29.2 42.9375 29.55 43.2375 29.85C43.5375 30.1167 43.8875 30.25 44.2875 30.25L45.6875 30.2C46.0542 30.2 46.3375 30.3333 46.5375 30.6C46.7375 30.8667 46.8375 31.2 46.8375 31.6ZM30.7375 30.3C32.1708 30.3 33.3708 30.15 34.3375 29.85C35.3042 29.55 36.4708 29 37.8375 28.2C37.9708 27.6333 38.0542 26.8833 38.0875 25.95C36.2542 25.0833 34.7375 24.65 33.5375 24.65C32.1708 24.65 30.9542 24.9 29.8875 25.4C28.8208 25.9 28.2875 26.7833 28.2875 28.05C28.2875 28.6833 28.5542 29.2167 29.0875 29.65C29.6208 30.0833 30.1708 30.3 30.7375 30.3ZM50.1617 16.6C49.6951 16.5333 49.3117 16.35 49.0117 16.05C48.7451 15.7167 48.6117 15.3167 48.6117 14.85C48.6117 14.25 48.8451 13.75 49.3117 13.35C49.4117 13.25 49.5784 13.1667 49.8117 13.1C50.0451 13 50.2284 12.9167 50.3617 12.85C51.0951 12.6167 51.5617 12.4333 51.7617 12.3C52.5284 11.8333 53.0451 11.0667 53.3117 10C53.5784 8.73333 53.7451 7.86667 53.8117 7.4C53.8784 6.66667 54.1117 6.11667 54.5117 5.75C54.9451 5.35 55.4784 5.15 56.1117 5.15C56.9451 5.15 57.5284 5.36667 57.8617 5.8C58.1951 6.23333 58.3617 7.03333 58.3617 8.2C58.3617 9.73333 57.9951 11.1833 57.2617 12.55C57.7284 12.55 58.4951 12.5167 59.5617 12.45C61.1617 12.3833 62.2784 12.35 62.9117 12.35C63.4784 12.35 63.9617 12.5 64.3617 12.8C64.7951 13.0667 65.0117 13.4667 65.0117 14C65.0117 15.2667 64.4284 16.0167 63.2617 16.25C62.1951 16.55 60.2617 16.7333 57.4617 16.8C57.2284 20.0667 57.1117 22.65 57.1117 24.55C57.1117 25.7167 57.1617 26.55 57.2617 27.05C57.4617 28.0833 57.7951 28.85 58.2617 29.35C58.7617 29.8167 59.4951 30.05 60.4617 30.05C60.9284 30.05 61.6284 29.9333 62.5617 29.7C63.1284 29.5333 63.5784 29.45 63.9117 29.45C64.3451 29.45 64.6784 29.6 64.9117 29.9C65.1451 30.2 65.2617 30.6 65.2617 31.1C65.2617 32 64.6784 32.75 63.5117 33.35C62.3451 33.9167 60.9617 34.2 59.3617 34.2C58.3617 34.2 57.3784 33.9667 56.4117 33.5C55.4451 33 54.6284 32.4 53.9617 31.7C53.8284 31.6333 53.6284 31.2667 53.3617 30.6C53.1284 29.9333 52.8951 29.2 52.6617 28.4C52.5617 28 52.5117 27.0333 52.5117 25.5C52.5117 24.0333 52.6117 21.5 52.8117 17.9L52.8617 16.8C52.6284 16.8 52.1951 16.7833 51.5617 16.75C50.9284 16.6833 50.4617 16.6333 50.1617 16.6ZM87.8629 34.2C86.7296 34.2 85.8629 34.0333 85.2629 33.7C84.6629 33.3333 84.0129 32.6667 83.3129 31.7C82.4462 32.4667 81.1462 33.0833 79.4129 33.55C77.7129 34.0167 76.2462 34.25 75.0129 34.25C72.9796 34.25 71.3296 33.7 70.0629 32.6C68.8296 31.4667 68.2129 29.8167 68.2129 27.65C68.2129 26.7167 68.4629 25.8667 68.9629 25.1C69.4962 24.3 70.1796 23.6 71.0129 23C71.9462 22.3667 73.0462 21.8667 74.3129 21.5C75.6129 21.1333 76.7962 20.95 77.8629 20.95C79.6629 20.95 81.2629 21.1167 82.6629 21.45V21.4C82.6629 19.6 82.2129 18.3667 81.3129 17.7C80.4462 17 79.0462 16.65 77.1129 16.65C75.8796 16.65 74.8129 17.2 73.9129 18.3C73.5796 18.7333 72.8796 18.95 71.8129 18.95C71.2796 18.95 70.8796 18.7333 70.6129 18.3C70.3796 17.8333 70.2629 17.3667 70.2629 16.9C70.2629 15.9333 70.6629 15.1 71.4629 14.4C72.2962 13.7 73.2962 13.1833 74.4629 12.85C75.6296 12.4833 76.7129 12.3 77.7129 12.3C78.6796 12.3 79.8296 12.5 81.1629 12.9C82.4962 13.3 83.5796 13.8333 84.4129 14.5C85.4129 15.3667 86.1796 16.3833 86.7129 17.55C87.2796 18.6833 87.5629 19.9333 87.5629 21.3C87.5629 21.7333 87.5296 22.3833 87.4629 23.25C87.3962 24.25 87.3629 25.0667 87.3629 25.7C87.3629 26 87.3296 26.3833 87.2629 26.85C87.1962 27.45 87.1629 27.95 87.1629 28.35C87.1629 28.7833 87.2962 29.2 87.5629 29.6C87.8296 30 88.1962 30.3333 88.6629 30.6C89.0962 30.8333 89.3796 31.0833 89.5129 31.35C89.6462 31.6167 89.7129 31.9167 89.7129 32.25C89.7129 32.5833 89.4962 33 89.0629 33.5C88.6629 33.9667 88.2629 34.2 87.8629 34.2ZM77.8629 24.65C76.5629 24.65 75.4129 24.9 74.4129 25.4C73.4129 25.9 72.9129 26.7833 72.9129 28.05C72.9129 28.6833 73.1296 29.2167 73.5629 29.65C74.0296 30.0833 74.5296 30.3 75.0629 30.3C76.4962 30.3 77.6962 30.15 78.6629 29.85C79.6296 29.55 80.7962 29 82.1629 28.2C82.3296 27.6667 82.4296 26.9167 82.4629 25.95C82.4629 25.5833 82.4796 25.3 82.5129 25.1C80.7129 24.8 79.1629 24.65 77.8629 24.65ZM99.0723 26.25C99.0723 27.5167 99.2556 28.5 99.6223 29.2C100.022 29.8667 100.522 30.2 101.122 30.2C101.456 30.2 101.772 30.1833 102.072 30.15C102.372 30.0833 102.672 30.05 102.972 30.05C103.306 30.05 103.589 30.2167 103.822 30.55C104.089 30.8833 104.222 31.25 104.222 31.65C104.222 32.45 103.839 33.0833 103.072 33.55C102.339 33.9833 101.339 34.2 100.072 34.2C99.1723 34.2 98.2556 33.9333 97.3223 33.4C96.4223 32.8333 95.6723 31.9667 95.0723 30.8C94.4723 29.6 94.1723 28.1167 94.1723 26.35C94.1723 22.55 94.2389 19.3333 94.3723 16.7C94.5389 13.5667 94.6223 9.61667 94.6223 4.85C94.6223 3.35 94.7056 2.3 94.8723 1.7C95.0723 1.23333 95.3889 0.883332 95.8223 0.649997C96.2889 0.383332 96.7723 0.249999 97.2723 0.249999C97.7723 0.249999 98.2056 0.333333 98.5723 0.499999C98.9723 0.666666 99.2389 0.933332 99.3723 1.3C99.5056 1.7 99.5889 2.1 99.6223 2.5C99.6889 2.86667 99.7223 3.4 99.7223 4.1C99.7223 5.46666 99.6723 6.78333 99.5723 8.05C99.5056 9.58333 99.4723 10.7 99.4723 11.4C99.2056 17.2667 99.0723 22.2167 99.0723 26.25ZM127.332 17.95C127.599 18.4167 127.816 19.1 127.982 20C128.149 20.8667 128.232 21.65 128.232 22.35C128.232 23.2833 128.082 24.45 127.782 25.85C127.482 27.2167 127.232 28.1333 127.032 28.6C125.232 32.3333 121.766 34.2 116.632 34.2C114.999 34.2 113.399 33.6667 111.832 32.6C110.266 31.5 109.149 30.2167 108.482 28.75L108.132 27.75C108.099 27.6167 107.916 27.1167 107.582 26.25C107.282 25.35 107.132 24.6667 107.132 24.2C107.132 22.8333 107.466 21.25 108.132 19.45C108.799 17.65 109.566 16.2167 110.432 15.15C110.999 14.3833 112.082 13.7333 113.682 13.2C115.282 12.6333 116.699 12.35 117.932 12.35C120.232 12.35 122.082 12.7833 123.482 13.65C124.916 14.5167 126.199 15.95 127.332 17.95ZM122.732 26C122.866 25.7667 122.982 25.35 123.082 24.75C123.182 24.15 123.232 23.45 123.232 22.65C123.232 21.6833 123.049 20.7333 122.682 19.8C122.349 18.8667 121.849 18.0667 121.182 17.4C121.149 17.3333 121.032 17.2333 120.832 17.1C120.632 16.9333 120.316 16.7833 119.882 16.65C119.449 16.4833 118.899 16.4 118.232 16.4C116.932 16.4 115.832 16.7833 114.932 17.55C114.032 18.3167 113.349 19.2667 112.882 20.4C112.449 21.5333 112.232 22.65 112.232 23.75C112.232 24.05 112.332 24.6667 112.532 25.6C112.732 26.5333 112.882 27.1333 112.982 27.4C113.249 27.8667 113.766 28.4167 114.532 29.05C115.299 29.65 116.166 29.95 117.132 29.95C118.632 29.95 119.799 29.6 120.632 28.9C121.499 28.2 122.199 27.2333 122.732 26ZM151.073 33.9C151.973 34.5333 152.573 35.2333 152.873 36C153.206 36.7667 153.373 37.8333 153.373 39.2C153.373 39.8667 153.173 40.5333 152.773 41.2C152.406 41.8667 152.023 42.35 151.623 42.65C148.456 44.3833 145.29 45.25 142.123 45.25C140.556 45.25 139.206 45.05 138.073 44.65C136.94 44.25 135.873 43.7167 134.873 43.05C134.206 42.55 133.656 41.85 133.223 40.95C132.823 40.0833 132.623 39.2167 132.623 38.35C132.623 37.15 132.99 36.1 133.723 35.2C134.49 34.3 135.506 33.65 136.773 33.25C136.54 32.75 136.423 32.1667 136.423 31.5C136.423 30.8667 136.89 29.9167 137.823 28.65C136.223 28.1167 134.956 27.1667 134.023 25.8C133.123 24.4333 132.673 22.8333 132.673 21C132.673 19.8667 132.94 18.8667 133.473 18C134.006 17.1 134.806 16.0667 135.873 14.9C136.606 14.1 137.54 13.5167 138.673 13.15C139.806 12.7833 141.223 12.6 142.923 12.6C144.123 12.6 145.606 12.8667 147.373 13.4C149.473 11.9333 151.323 11.2 152.923 11.2C153.323 11.2 153.773 11.3 154.273 11.5C154.806 11.7 155.206 11.9 155.473 12.1C155.673 12.4667 155.773 13.0833 155.773 13.95C155.773 14.2833 155.623 14.6167 155.323 14.95C155.056 15.25 154.706 15.4 154.273 15.4L153.073 15.35C152.473 15.2833 152.006 15.25 151.673 15.25C151.306 15.25 150.756 15.2833 150.023 15.35C150.723 16.1833 151.256 17.0667 151.623 18C152.023 18.9333 152.223 20.15 152.223 21.65C152.223 22.7833 151.806 23.9667 150.973 25.2C150.14 26.4333 149.156 27.4 148.023 28.1C146.29 29.0333 144.273 29.5167 141.973 29.55C141.706 29.8167 141.473 30.0667 141.273 30.3C141.106 30.5 141.023 30.6667 141.023 30.8C141.023 31.1667 141.34 31.45 141.973 31.65C142.606 31.85 143.573 32 144.873 32.1C145.873 32.1667 146.973 32.3833 148.173 32.75C149.406 33.0833 150.373 33.4667 151.073 33.9ZM142.273 25.45C143.806 25.45 145.04 25.0333 145.973 24.2C146.906 23.3667 147.373 22.1833 147.373 20.65C147.373 19.4833 146.956 18.5333 146.123 17.8C145.29 17.0667 144.223 16.7 142.923 16.7C142.09 16.7 141.19 16.85 140.223 17.15C139.29 17.4167 138.623 17.85 138.223 18.45C138.023 18.7167 137.823 19.2333 137.623 20C137.423 20.7333 137.323 21.3 137.323 21.7C137.323 22.2667 137.556 22.85 138.023 23.45C138.523 24.0167 139.156 24.5 139.923 24.9C140.723 25.2667 141.506 25.45 142.273 25.45ZM145.423 36.3C143.59 36.1333 142.29 35.9667 141.523 35.8C140.79 35.6667 140.19 35.5 139.723 35.3C138.023 36.2 137.173 37.1833 137.173 38.25C137.173 39.25 137.69 40 138.723 40.5C139.756 41.0333 140.94 41.3 142.273 41.3C142.873 41.3 143.69 41.2333 144.723 41.1C145.756 40.9667 146.623 40.7333 147.323 40.4C147.79 40.1667 148.14 39.9333 148.373 39.7C148.606 39.5 148.723 39.1167 148.723 38.55C148.723 37.85 148.356 37.3167 147.623 36.95C146.89 36.5833 146.156 36.3667 145.423 36.3Z" fill="#FFFDFD"/>
</svg>
