<svg width="514" height="51" viewBox="0 0 514 51" fill="none" xmlns="http://www.w3.org/2000/svg">
<path d="M40.34 39.925L41.825 42.675L31.705 48.89C30.055 49.3667 28.46 49.6783 26.92 49.825C25.4167 50.0083 23.785 50.1 22.025 50.1C17.8083 50.1 14.0683 49.165 10.805 47.295C7.57833 45.425 5.06667 42.8583 3.27 39.595C1.47333 36.295 0.575 32.555 0.575 28.375C0.575 24.085 1.91333 20.125 4.59 16.495C7.30333 12.8283 10.6583 9.95 14.655 7.86C18.6517 5.73333 22.4467 4.67 26.04 4.67C28.2033 4.67 30.7333 4.945 33.63 5.495C36.5633 6.045 38.69 6.63166 40.01 7.255V18.86H36.655C33.1717 12.92 28.57 9.95 22.85 9.95C20.32 9.95 18.0283 10.6283 15.975 11.985C13.9217 13.3417 12.3083 15.23 11.135 17.65C9.96167 20.0333 9.375 22.7283 9.375 25.735C9.375 29.2183 9.94333 32.39 11.08 35.25C12.2167 38.11 13.9583 40.4017 16.305 42.125C18.6883 43.8483 21.6217 44.71 25.105 44.71C26.6083 44.71 27.8367 44.6733 28.79 44.6C29.78 44.5267 30.9167 44.3067 32.2 43.94V31.62L23.62 29.42L24.995 26.67H45.565V28.925L40.34 33.16V39.925ZM83.7268 49H72.4518V43.665L65.9068 49.11C65.1368 49.4033 64.0735 49.55 62.7168 49.55C60.1135 49.55 58.0418 48.7983 56.5018 47.295C54.9618 45.755 54.1918 43.6833 54.1918 41.08V28.485L49.2968 25.625V23.37L59.2518 18.695H61.8918V37.78C61.8918 39.7233 62.1852 41.08 62.7718 41.85C63.3585 42.5833 64.3852 42.95 65.8518 42.95C66.8785 42.95 67.9052 42.7667 68.9318 42.4C69.9585 42.0333 71.1318 41.3367 72.4518 40.31V28.485L67.5568 25.625V23.37L77.5118 18.695H80.1518V44.435L85.1018 46.25L83.7268 49ZM105.564 49H89.3936V46.745L94.2886 42.785V28.045L89.3936 24.69V22.435L99.3486 18.585H101.989V44.435L106.939 46.25L105.564 49ZM97.9736 2.03C99.2569 2.03 100.32 2.48833 101.164 3.405C102.007 4.285 102.429 5.385 102.429 6.705C102.429 7.62167 102.117 8.50167 101.494 9.345C100.907 10.1517 100.155 10.7933 99.2386 11.27C98.3586 11.7467 97.4969 11.985 96.6536 11.985C95.3702 11.985 94.3069 11.545 93.4636 10.665C92.6202 9.785 92.1986 8.685 92.1986 7.365C92.1986 6.41166 92.4919 5.53166 93.0786 4.725C93.7019 3.91833 94.4536 3.27667 95.3336 2.8C96.2502 2.28666 97.1302 2.03 97.9736 2.03ZM128.084 49.11C127.094 49.4033 125.884 49.55 124.454 49.55C121.191 49.55 118.807 48.7617 117.304 47.185C115.837 45.5717 115.104 43.0967 115.104 39.76V24.085H109.164V21.555L120.164 9.125H122.804V21.28H132.704V24.085H122.804V39.98C122.804 41.4467 123.152 42.51 123.849 43.17C124.582 43.83 125.664 44.16 127.094 44.16C127.864 44.16 128.597 44.0317 129.294 43.775C130.027 43.4817 130.926 42.95 131.989 42.18L133.639 44.71L128.084 49.11ZM167.063 49H155.788V44.215L149.573 49.11C148.839 49.4033 147.923 49.55 146.823 49.55C143.523 49.55 141.121 48.7433 139.618 47.13C138.151 45.48 137.418 43.5 137.418 41.19C137.418 39.8333 137.876 38.5133 138.793 37.23C139.746 35.91 141.084 34.6633 142.808 33.49H155.788V30.96C155.788 26.78 153.551 24.69 149.078 24.69C146.731 24.69 143.724 25.9183 140.058 28.375L138.408 25.9L146.218 19.685C147.758 19.2817 149.683 19.08 151.993 19.08C155.623 19.08 158.446 19.9417 160.463 21.665C162.479 23.3883 163.488 25.9 163.488 29.2V44.325L168.438 46.25L167.063 49ZM148.968 43.775C151.021 43.775 153.294 42.84 155.788 40.97V36.295H146.383C145.649 37.175 145.283 38.2383 145.283 39.485C145.283 40.695 145.613 41.7217 146.273 42.565C146.969 43.3717 147.868 43.775 148.968 43.775ZM189.815 25.625C188.201 25.625 186.551 26.4683 184.865 28.155V43.94L192.84 46.25L191.465 49H172.27V46.745L177.165 42.785V28.485L172.27 25.515V23.26L182.5 18.585L184.37 25.075L189.815 19.52C190.475 19.2267 191.428 19.08 192.675 19.08C194.178 19.08 195.48 19.4467 196.58 20.18C197.68 20.9133 198.486 21.94 199 23.26L194.71 28.65H192.07C191.96 27.5867 191.721 26.835 191.355 26.395C191.025 25.9183 190.511 25.68 189.815 25.68V25.625ZM234.824 25.625C233.211 25.625 231.561 26.4683 229.874 28.155V43.94L237.849 46.25L236.474 49H217.279V46.745L222.174 42.785V28.485L217.279 25.515V23.26L227.509 18.585L229.379 25.075L234.824 19.52C235.484 19.2267 236.438 19.08 237.684 19.08C239.188 19.08 240.489 19.4467 241.589 20.18C242.689 20.9133 243.496 21.94 244.009 23.26L239.719 28.65H237.079C236.969 27.5867 236.731 26.835 236.364 26.395C236.034 25.9183 235.521 25.68 234.824 25.68V25.625ZM266.844 48.945C265.158 49.3483 263.086 49.55 260.629 49.55C258.099 49.55 255.826 48.9267 253.809 47.68C251.829 46.3967 250.271 44.6733 249.134 42.51C247.998 40.31 247.429 37.89 247.429 35.25C247.429 32.39 248.309 29.7317 250.069 27.275C251.866 24.7817 254.103 22.8017 256.779 21.335C259.456 19.8317 262.041 19.08 264.534 19.08C268.164 19.08 270.988 20.4917 273.004 23.315C275.021 26.1383 276.011 29.9333 275.974 34.7H255.789C256.083 37.4867 256.908 39.7417 258.264 41.465C259.658 43.1883 261.528 44.05 263.874 44.05C266.331 44.05 269.851 42.4183 274.434 39.155L276.029 41.685L266.844 48.945ZM261.399 24.36C257.769 24.36 255.863 26.8717 255.679 31.895H267.614C267.321 30.0983 266.991 28.705 266.624 27.715C266.294 26.6883 265.708 25.8817 264.864 25.295C264.058 24.6717 262.903 24.36 261.399 24.36ZM299.481 42.62C299.481 41.74 298.931 40.8967 297.831 40.09C296.767 39.2833 295.136 38.2933 292.936 37.12C290.076 35.58 287.876 34.205 286.336 32.995C284.796 31.7483 284.026 30.3 284.026 28.65C284.026 27.33 284.612 25.9183 285.786 24.415C286.959 22.9117 288.389 21.6467 290.076 20.62C291.799 19.5933 293.376 19.08 294.806 19.08C296.566 19.08 298.601 19.3 300.911 19.74C303.257 20.1433 304.962 20.6017 306.026 21.115V29.86H303.386C302.322 27.77 301.039 26.1383 299.536 24.965C298.069 23.7917 296.566 23.205 295.026 23.205C294.036 23.205 293.247 23.48 292.661 24.03C292.074 24.5433 291.781 25.185 291.781 25.955C291.781 26.945 292.331 27.8617 293.431 28.705C294.567 29.5483 296.272 30.575 298.546 31.785C300.452 32.8117 301.956 33.6917 303.056 34.425C304.192 35.1217 305.164 35.9467 305.971 36.9C306.777 37.8167 307.181 38.8433 307.181 39.98C307.181 41.3367 306.557 42.7667 305.311 44.27C304.101 45.7367 302.616 46.9833 300.856 48.01C299.132 49.0367 297.537 49.55 296.071 49.55C294.164 49.55 291.909 49.3483 289.306 48.945C286.739 48.505 284.906 48.0283 283.806 47.515V38.605H286.446C287.656 40.7683 289.104 42.455 290.791 43.665C292.514 44.8383 294.237 45.425 295.961 45.425C296.987 45.425 297.831 45.15 298.491 44.6C299.151 44.05 299.481 43.39 299.481 42.62ZM329.323 49H313.153V46.745L318.048 42.785V28.045L313.153 24.69V22.435L323.108 18.585H325.748V44.435L330.698 46.25L329.323 49ZM321.733 2.03C323.017 2.03 324.08 2.48833 324.923 3.405C325.767 4.285 326.188 5.385 326.188 6.705C326.188 7.62167 325.877 8.50167 325.253 9.345C324.667 10.1517 323.915 10.7933 322.998 11.27C322.118 11.7467 321.257 11.985 320.413 11.985C319.13 11.985 318.067 11.545 317.223 10.665C316.38 9.785 315.958 8.685 315.958 7.365C315.958 6.41166 316.252 5.53166 316.838 4.725C317.462 3.91833 318.213 3.27667 319.093 2.8C320.01 2.28666 320.89 2.03 321.733 2.03ZM369.114 49H357.839V44.985L352.669 49.11C351.495 49.4033 350.102 49.55 348.489 49.55C346.069 49.55 343.887 48.9267 341.944 47.68C340.037 46.3967 338.534 44.6733 337.434 42.51C336.37 40.31 335.839 37.89 335.839 35.25C335.839 32.39 336.719 29.7317 338.479 27.275C340.275 24.7817 342.512 22.8017 345.189 21.335C347.865 19.8317 350.45 19.08 352.944 19.08C354.704 19.08 356.335 19.575 357.839 20.565V10.445L352.944 7.09V4.835L362.899 0.984999H365.539V44.435L370.489 46.25L369.114 49ZM351.514 43.72C352.614 43.72 353.659 43.5917 354.649 43.335C355.639 43.0417 356.702 42.5283 357.839 41.795V30.025C357.619 28.375 356.812 27.0183 355.419 25.955C354.062 24.8917 352.174 24.36 349.754 24.36C345.977 24.36 344.089 27.1283 344.089 32.665C344.089 35.8183 344.73 38.4583 346.014 40.585C347.297 42.7117 349.13 43.775 351.514 43.775V43.72ZM394.515 48.945C392.828 49.3483 390.757 49.55 388.3 49.55C385.77 49.55 383.497 48.9267 381.48 47.68C379.5 46.3967 377.942 44.6733 376.805 42.51C375.668 40.31 375.1 37.89 375.1 35.25C375.1 32.39 375.98 29.7317 377.74 27.275C379.537 24.7817 381.773 22.8017 384.45 21.335C387.127 19.8317 389.712 19.08 392.205 19.08C395.835 19.08 398.658 20.4917 400.675 23.315C402.692 26.1383 403.682 29.9333 403.645 34.7H383.46C383.753 37.4867 384.578 39.7417 385.935 41.465C387.328 43.1883 389.198 44.05 391.545 44.05C394.002 44.05 397.522 42.4183 402.105 39.155L403.7 41.685L394.515 48.945ZM389.07 24.36C385.44 24.36 383.533 26.8717 383.35 31.895H395.285C394.992 30.0983 394.662 28.705 394.295 27.715C393.965 26.6883 393.378 25.8817 392.535 25.295C391.728 24.6717 390.573 24.36 389.07 24.36ZM444.972 49H433.697V30.85C433.697 28.9067 433.403 27.5683 432.817 26.835C432.23 26.065 431.203 25.68 429.737 25.68C428.637 25.68 427.537 25.8633 426.437 26.23C425.337 26.5967 424.09 27.2933 422.697 28.32V44.435L427.647 46.25L426.272 49H410.102V46.745L414.997 42.785V28.485L410.102 25.515V23.26L420.332 18.585L422.257 25.405L429.682 19.52C430.452 19.2267 431.515 19.08 432.872 19.08C435.475 19.08 437.547 19.85 439.087 21.39C440.627 22.8933 441.397 24.9467 441.397 27.55V44.435L446.347 46.25L444.972 49ZM466.839 19.08C468.452 19.08 470.304 19.3 472.394 19.74C474.484 20.1433 476.005 20.6017 476.959 21.115V30.245H474.319C472.925 28.4117 471.312 26.9817 469.479 25.955C467.645 24.8917 465.757 24.36 463.814 24.36C462.274 24.36 461.1 25.075 460.294 26.505C459.487 27.8983 459.084 29.9333 459.084 32.61C459.084 35.8733 459.78 38.605 461.174 40.805C462.567 42.9683 464.584 44.05 467.224 44.05C469.46 44.05 472.614 42.675 476.684 39.925L478.334 42.455L470.084 48.945C468.47 49.3483 466.454 49.55 464.034 49.55C461.504 49.55 459.23 48.9267 457.214 47.68C455.234 46.3967 453.675 44.6733 452.539 42.51C451.402 40.31 450.834 37.89 450.834 35.25C450.834 32.39 451.659 29.7317 453.309 27.275C454.959 24.7817 457.03 22.8017 459.524 21.335C462.054 19.8317 464.492 19.08 466.839 19.08ZM504.461 48.945C502.775 49.3483 500.703 49.55 498.246 49.55C495.716 49.55 493.443 48.9267 491.426 47.68C489.446 46.3967 487.888 44.6733 486.751 42.51C485.615 40.31 485.046 37.89 485.046 35.25C485.046 32.39 485.926 29.7317 487.686 27.275C489.483 24.7817 491.72 22.8017 494.396 21.335C497.073 19.8317 499.658 19.08 502.151 19.08C505.781 19.08 508.605 20.4917 510.621 23.315C512.638 26.1383 513.628 29.9333 513.591 34.7H493.406C493.7 37.4867 494.525 39.7417 495.881 41.465C497.275 43.1883 499.145 44.05 501.491 44.05C503.948 44.05 507.468 42.4183 512.051 39.155L513.646 41.685L504.461 48.945ZM499.016 24.36C495.386 24.36 493.48 26.8717 493.296 31.895H505.231C504.938 30.0983 504.608 28.705 504.241 27.715C503.911 26.6883 503.325 25.8817 502.481 25.295C501.675 24.6717 500.52 24.36 499.016 24.36Z" fill="white"/>
</svg>
