<svg width="33" height="32" viewBox="0 0 33 32" fill="none" xmlns="http://www.w3.org/2000/svg">
<g id="search">
<mask id="mask0_8_23" style="mask-type:alpha" maskUnits="userSpaceOnUse" x="0" y="0" width="33" height="32">
<rect id="Bounding box" width="32.1081" height="31.748" fill="#D9D9D9"/>
</mask>
<g mask="url(#mask0_8_23)">
<path id="search_2" d="M26.2081 27.811L17.7797 19.4772C17.1108 20.0063 16.3416 20.4252 15.472 20.7339C14.6024 21.0425 13.677 21.1968 12.6959 21.1968C10.2655 21.1968 8.20861 20.3646 6.52517 18.7C4.84172 17.0354 4 15.0016 4 12.5984C4 10.1953 4.84172 8.16142 6.52517 6.49685C8.20861 4.83228 10.2655 4 12.6959 4C15.1264 4 17.1833 4.83228 18.8667 6.49685C20.5502 8.16142 21.3919 10.1953 21.3919 12.5984C21.3919 13.5685 21.2358 14.4835 20.9236 15.3433C20.6115 16.2031 20.1878 16.9638 19.6527 17.6252L28.0811 25.9591L26.2081 27.811ZM12.6959 18.5512C14.3682 18.5512 15.7897 17.9724 16.9603 16.815C18.1309 15.6575 18.7162 14.252 18.7162 12.5984C18.7162 10.9449 18.1309 9.53937 16.9603 8.38189C15.7897 7.22441 14.3682 6.64567 12.6959 6.64567C11.0236 6.64567 9.6022 7.22441 8.43159 8.38189C7.26098 9.53937 6.67568 10.9449 6.67568 12.5984C6.67568 14.252 7.26098 15.6575 8.43159 16.815C9.6022 17.9724 11.0236 18.5512 12.6959 18.5512Z" fill="#1C1B1F"/>
</g>
</g>
</svg>
