<svg width="50" height="50" viewBox="0 0 50 50" fill="none" xmlns="http://www.w3.org/2000/svg">
<g id="shopping_cart">
<mask id="mask0_11_4" style="mask-type:alpha" maskUnits="userSpaceOnUse" x="-2" y="-2" width="54" height="54">
<rect id="Bounding box" x="-1" y="-1" width="52" height="52" fill="#D9D9D9" stroke="black" stroke-width="2"/>
</mask>
<g mask="url(#mask0_11_4)">
<path id="shopping_cart_2" d="M44.312 12.0476L44.3178 12.0371L44.3233 12.0265C44.8656 10.9912 44.8388 9.90449 44.2484 8.89588C43.6596 7.88996 42.7303 7.33335 41.5625 7.33335H11.4654L9.75742 3.73763L9.48623 3.16669H8.85415H2.08331H1.08331V4.16669V8.33335V9.33335H2.08331H5.61715L12.6272 24.1323L10.0616 28.7883L10.0616 28.7882L10.057 28.7968C9.15653 30.4691 9.21057 32.202 10.1775 33.8626C11.1517 35.5357 12.658 36.4167 14.5833 36.4167H39.5833H40.5833V35.4167V31.25V30.25H39.5833H16.2746L17.4663 28.0834H32.3958C33.3354 28.0834 34.2157 27.846 35.0163 27.37C35.8206 26.8917 36.4545 26.2195 36.9169 25.3795C36.9172 25.3789 36.9175 25.3784 36.9179 25.3778L44.312 12.0476ZM10.9335 45.3165C11.9355 46.3185 13.1702 46.8334 14.5833 46.8334C15.9965 46.8334 17.2311 46.3185 18.2331 45.3165C19.2351 44.3145 19.75 43.0798 19.75 41.6667C19.75 40.2535 19.2351 39.0189 18.2331 38.0169C17.2311 37.0149 15.9965 36.5 14.5833 36.5C13.1702 36.5 11.9355 37.0149 10.9335 38.0169C9.93149 39.0189 9.41665 40.2535 9.41665 41.6667C9.41665 43.0798 9.93149 44.3145 10.9335 45.3165ZM31.7668 45.3165C32.7688 46.3185 34.0035 46.8334 35.4166 46.8334C36.8298 46.8334 38.0644 46.3185 39.0665 45.3165C40.0685 44.3145 40.5833 43.0798 40.5833 41.6667C40.5833 40.2535 40.0685 39.0189 39.0665 38.0169C38.0644 37.0149 36.8298 36.5 35.4166 36.5C34.0035 36.5 32.7688 37.0149 31.7668 38.0169C30.7648 39.0189 30.25 40.2535 30.25 41.6667C30.25 43.0798 30.7648 44.3145 31.7668 45.3165ZM18.4417 21.9167L14.4017 13.5H36.4337L31.8045 21.9167H18.4417Z" fill="white" stroke="black" stroke-width="2"/>
</g>
</g>
</svg>
